<svg xmlns="http://www.w3.org/2000/svg" viewBox="0 0 180 120"><ellipse cx="88" cy="102" rx="55" ry="10" fill="#06111a" opacity=".45"/><path d="M36 65 14 52l8-16 25 8 18-24 28 6 20 18 27 3 23 20-15 21-35-7-24 17-41-5-18-17z" fill="#24283b" stroke="#0a111c" stroke-width="6" stroke-linejoin="round"/><path d="m67 30 8-23 14 24m19 16 12-28 16 31m-71 22-20 30m70-22 16 22" fill="#875cff" stroke="#2a1e50" stroke-width="6" stroke-linecap="round"/><path d="M24 50 9 31l29 8" fill="#30364c" stroke="#0a111c" stroke-width="5"/><path d="m147 57 25-10-8 22" fill="#30364c" stroke="#0a111c" stroke-width="5"/><circle cx="137" cy="63" r="5" fill="#ff4d72"/><path d="M145 76 160 81 145 86" fill="#e9f8ff"/><path d="M56 84 41 105m34-14 2 20m41-26 12 18m-1-30 27 22" stroke="#161c2b" stroke-width="9" stroke-linecap="round"/><path d="M65 30 75 13l8 20zm44 17 12-21 9 25z" fill="#55ddff"/></svg>