<svg xmlns="http://www.w3.org/2000/svg" viewBox="0 0 150 150"><defs><linearGradient id="s" x1="0" y1="1" x2="0" y2="0"><stop stop-color="#234e42"/><stop offset="1" stop-color="#68b97a"/></linearGradient><filter id="g"><feGaussianBlur stdDeviation="2" result="b"/><feMerge><feMergeNode in="b"/><feMergeNode in="SourceGraphic"/></feMerge></filter></defs><ellipse cx="75" cy="132" rx="55" ry="12" fill="#071a18" opacity=".45"/><g fill="none" stroke="url(#s)" stroke-width="5" stroke-linecap="round"><path d="M40 130Q36 80 25 31"/><path d="M58 132Q52 76 61 19"/><path d="M78 132Q87 82 82 28"/><path d="M98 132Q111 75 120 38"/><path d="M117 132Q126 91 139 63"/></g><g fill="#a3f6ff" filter="url(#g)"><path d="M19 29 26 13l7 18-8 10z"/><path d="M55 21 62 2l8 19-9 12z"/><path d="M76 30 83 11l8 18-9 12z"/><path d="M113 39 122 19l7 19-10 12z"/></g><g fill="#7659d9" opacity=".85"><ellipse cx="47" cy="88" rx="12" ry="5" transform="rotate(-30 47 88)"/><ellipse cx="91" cy="83" rx="12" ry="5" transform="rotate(28 91 83)"/><ellipse cx="119" cy="100" rx="11" ry="5" transform="rotate(-25 119 100)"/></g></svg>